<?xml version="1.0" standalone="no"?>
<!DOCTYPE svg PUBLIC "-//W3C//DTD SVG 20010904//EN"
 "http://www.w3.org/TR/2001/REC-SVG-20010904/DTD/svg10.dtd">
<svg version="1.0" xmlns="http://www.w3.org/2000/svg"
 width="260.000000pt" height="260.000000pt" viewBox="0 0 260.000000 260.000000"
 preserveAspectRatio="xMidYMid meet">
<metadata>
Created by potrace 1.11, written by Peter Selinger 2001-2013
</metadata>
<g transform="translate(0.000000,260.000000) scale(0.100000,-0.100000)"
fill="#000000" stroke="none">
<path d="M1258 2553 l-3 -28 -142 0 c-142 1 -143 1 -143 -22 0 -25 1 -25 -55
-27 -34 -2 -41 -5 -45 -27 -4 -22 -10 -26 -40 -24 -48 3 -60 -3 -60 -32 0 -13
-5 -23 -12 -22 -28 3 -40 -2 -35 -15 5 -13 -20 -45 -30 -38 -11 8 -19 -1 -19
-20 1 -13 -5 -23 -11 -24 -7 -1 -17 -2 -23 -3 -5 0 -10 -12 -10 -25 0 -20 -4
-24 -25 -21 -24 2 -25 0 -25 -52 0 -37 -4 -53 -12 -52 -35 4 -38 -1 -38 -76 0
-73 -1 -75 -25 -75 l-25 0 0 -225 0 -225 25 0 c24 0 25 -2 25 -75 0 -73 -1
-75 -25 -75 -23 0 -25 -3 -25 -50 0 -47 -2 -50 -26 -50 -22 0 -25 -4 -24 -27
1 -16 2 -72 1 -125 -1 -95 -2 -98 -24 -98 -22 0 -22 -3 -22 -97 0 -94 -1 -98
-23 -101 -12 -2 -22 -11 -23 -20 0 -9 -1 -65 -2 -124 l0 -108 -29 0 -28 0 0
-150 0 -150 29 0 c29 0 30 -1 27 -50 -2 -46 0 -50 21 -50 13 0 24 -4 24 -10 1
-5 2 -16 3 -22 0 -7 11 -14 24 -16 18 -3 22 1 22 22 0 21 5 26 25 26 20 0 25
-5 25 -25 0 -20 5 -25 25 -25 20 0 25 -5 25 -25 0 -24 2 -25 74 -25 74 0 74 0
71 26 -2 22 1 25 24 22 20 -2 26 -8 25 -25 -1 -22 2 -23 72 -23 l74 0 0 -30 0
-30 120 0 120 0 0 55 c0 50 -2 55 -22 55 -17 0 -23 6 -24 25 -2 20 3 25 22 25
19 0 24 5 24 25 l0 25 195 0 195 0 0 -75 0 -75 50 0 c47 0 50 2 50 25 0 20 5
25 25 25 20 0 25 -5 25 -25 0 -24 2 -25 70 -25 68 0 70 1 70 25 0 20 5 25 25
25 20 0 25 5 25 25 0 20 5 25 25 25 23 0 25 -3 25 -50 l0 -50 50 0 c47 0 50 2
50 25 0 24 2 25 70 25 68 0 70 1 70 25 0 20 5 25 25 25 20 0 25 5 25 25 0 20
5 25 25 25 20 0 25 5 25 25 0 20 5 25 25 25 24 0 25 2 25 75 0 73 -1 75 -25
75 -20 0 -25 5 -25 25 0 20 -5 25 -25 25 -20 0 -25 5 -25 25 0 20 -5 25 -25
25 -21 0 -25 5 -25 30 0 17 3 29 8 29 26 -4 42 3 42 21 0 15 7 20 25 20 20 0
25 5 25 25 0 20 5 25 25 25 20 0 25 5 25 25 0 20 5 25 25 25 24 0 24 0 23 100
-1 98 -1 100 -24 100 -22 0 -24 4 -24 50 0 47 -2 50 -25 50 -20 0 -25 5 -25
25 0 20 -5 25 -25 25 -20 0 -25 5 -25 25 0 20 -5 25 -25 25 -23 0 -25 3 -25
50 0 47 2 50 25 50 20 0 25 5 25 25 0 20 5 25 25 25 20 0 25 5 25 25 0 20 5
25 25 25 20 0 25 5 25 25 0 20 5 25 25 25 20 0 25 5 25 26 0 21 4 25 23 22 14
-2 22 -10 22 -23 0 -17 8 -20 53 -23 50 -3 52 -2 52 22 0 22 -5 26 -29 26
l-29 0 1 116 c1 64 0 119 -3 124 -3 4 -14 9 -24 11 -12 3 -20 13 -21 27 -1 19
3 22 39 23 23 1 47 1 54 0 7 -1 12 9 12 23 0 19 -6 25 -27 28 -20 2 -28 9 -28
23 0 12 -9 21 -25 25 -18 4 -25 12 -24 28 1 17 -4 22 -22 22 -19 0 -24 5 -24
25 0 26 -12 31 -72 26 -24 -2 -28 2 -28 23 0 21 -5 26 -25 26 -23 0 -25 3 -25
50 0 49 5 55 38 51 7 -1 12 9 12 24 0 24 8 30 38 26 7 -1 12 9 12 24 0 26 -7
29 -67 26 -30 -2 -33 1 -33 27 0 26 -2 28 -42 27 -24 0 -45 5 -46 10 -13 35
-22 41 -61 38 -37 -3 -40 -1 -43 25 -2 19 -9 27 -23 27 -13 0 -21 8 -25 25 -4
18 -11 25 -27 24 -18 -1 -23 4 -23 22 0 13 -4 25 -10 25 -5 1 -16 2 -22 3 -7
0 -15 12 -18 26 -3 17 -12 25 -25 25 -13 0 -22 8 -25 25 -5 24 -9 25 -70 25
-62 -1 -65 1 -70 25 l-5 25 -192 3 -192 2 -3 -27z"/>
</g>
</svg>
