<?xml version="1.0" standalone="no"?>
<!DOCTYPE svg PUBLIC "-//W3C//DTD SVG 20010904//EN"
 "http://www.w3.org/TR/2001/REC-SVG-20010904/DTD/svg10.dtd">
<svg version="1.0" xmlns="http://www.w3.org/2000/svg"
 width="200.000000pt" height="200.000000pt" viewBox="0 0 200.000000 200.000000"
 preserveAspectRatio="xMidYMid meet">
<metadata>
Created by potrace 1.11, written by Peter Selinger 2001-2013
</metadata>
<g transform="translate(0.000000,200.000000) scale(0.100000,-0.100000)"
fill="#000000" stroke="none">
<path d="M649 1925 c-1 -16 0 -42 1 -57 1 -21 -3 -28 -17 -29 -10 0 -63 -2
-118 -2 -72 -2 -100 -6 -101 -14 -1 -7 -2 -34 -3 -59 -1 -37 -4 -45 -18 -43
-10 1 -37 1 -59 0 l-41 -1 1 -115 c2 -129 11 -115 -79 -119 l-40 -1 -1 -105
c-1 -58 -2 -110 -3 -117 -1 -8 -18 -11 -51 -9 -28 2 -53 -1 -56 -6 -5 -7 -8
-342 -5 -438 1 -24 4 -25 58 -25 l57 0 2 -50 c1 -27 2 -53 3 -57 0 -4 27 -8
58 -10 l57 -3 2 -50 c1 -27 2 -53 3 -58 0 -4 26 -6 56 -4 l55 4 1 -36 c0 -20
1 -98 1 -174 -1 -99 2 -137 11 -139 14 -1 63 -6 89 -7 14 -1 18 -13 20 -58 l3
-58 460 0 c253 -1 465 1 471 3 7 2 11 24 9 58 -2 58 -4 57 60 56 62 -1 60 -8
59 178 0 148 2 170 15 171 9 1 35 1 59 2 46 0 45 -1 42 75 l-2 42 61 0 61 0 0
59 0 59 33 0 c17 0 44 0 58 1 l26 1 1 233 0 233 -59 -1 -59 -2 0 117 0 117
-47 1 c-27 0 -54 0 -60 1 -10 1 -13 29 -11 111 1 60 -2 113 -6 117 -4 4 -22 6
-41 4 -64 -5 -74 4 -72 62 l2 52 -113 1 c-61 0 -115 4 -119 8 -4 3 -7 28 -8
54 -1 26 -3 49 -4 52 0 3 -158 5 -351 5 l-350 0 -1 -30z"/>
</g>
</svg>
